<?xml version="1.0" encoding="UTF-8"?>
<svg width="57px" height="43px" viewBox="0 0 57 43" version="1.1" xmlns="http://www.w3.org/2000/svg" xmlns:xlink="http://www.w3.org/1999/xlink">
    <!-- Generator: Sketch 64 (93537) - https://sketch.com -->
    <title>bank</title>
    <desc>Created with Sketch.</desc>
    <g id="Screens" stroke="none" stroke-width="1" fill="none" fill-rule="evenodd">
        <g id="Home---Mark-11" transform="translate(-16.000000, -87.000000)">
            <g id="Subscription-Expired" transform="translate(0.000000, 73.750000)">
                <g id="bank" transform="translate(16.000000, 13.250000)">
                    <path d="M47.9375,0 L4.0625,0 C1.82253906,0 0,1.80425272 0,4.02173913 L0,32.9782609 C0,35.1957473 1.82253906,37 4.0625,37 L47.9375,37 C50.1774609,37 52,35.1957473 52,32.9782609 L52,4.02173913 C52,1.80425272 50.1774609,0 47.9375,0 Z" id="Path" fill="#FEFFFE" fill-rule="nonzero"></path>
                    <path d="M20.375,16 L10.625,16 C9.72749219,16 9,15.3284687 9,14.5 L9,8.5 C9,7.67153125 9.72749219,7 10.625,7 L20.375,7 C21.2725078,7 22,7.67153125 22,8.5 L22,14.5 C22,15.3284687 21.2725078,16 20.375,16 Z" id="Path" fill="#FFD100" fill-rule="nonzero"></path>
                    <g id="Group" transform="translate(8.000000, 22.000000)" fill="#B8BAC0" fill-rule="nonzero">
                        <path d="M5.6875,4 L1.625,4 C0.727492187,4 0,3.2837 0,2.4 L0,1.6 C0,0.7163 0.727492187,0 1.625,0 L5.6875,0 C6.58500781,0 7.3125,0.7163 7.3125,1.6 L7.3125,2.4 C7.3125,3.2837 6.58500781,4 5.6875,4 Z" id="Path"></path>
                        <path d="M16.25,4 L12.1875,4 C11.2899922,4 10.5625,3.2837 10.5625,2.4 L10.5625,1.6 C10.5625,0.7163 11.2899922,0 12.1875,0 L16.25,0 C17.1475078,0 17.875,0.7163 17.875,1.6 L17.875,2.4 C17.875,3.2837 17.1475078,4 16.25,4 Z" id="Path"></path>
                        <path d="M26.8125,4 L22.75,4 C21.8524922,4 21.125,3.2837 21.125,2.4 L21.125,1.6 C21.125,0.7163 21.8524922,0 22.75,0 L26.8125,0 C27.7100078,0 28.4375,0.7163 28.4375,1.6 L28.4375,2.4 C28.4375,3.2837 27.7100078,4 26.8125,4 Z" id="Path"></path>
                        <path d="M37.375,4 L33.3125,4 C32.4149922,4 31.6875,3.2837 31.6875,2.4 L31.6875,1.6 C31.6875,0.7163 32.4149922,0 33.3125,0 L37.375,0 C38.2725078,0 39,0.7163 39,1.6 L39,2.4 C39,3.2837 38.2725078,4 37.375,4 Z" id="Path"></path>
                    </g>
                    <path d="M26.1818182,32 L9.81818182,32 C9.36593182,32 9,31.55225 9,31 C9,30.44775 9.36593182,30 9.81818182,30 L26.1818182,30 C26.6340682,30 27,30.44775 27,31 C27,31.55225 26.6340682,32 26.1818182,32 Z" id="Path" fill="#8A8895" fill-rule="nonzero"></path>
                    <path d="M36.1818182,32 L28.8181818,32 C28.3659318,32 28,31.55225 28,31 C28,30.44775 28.3659318,30 28.8181818,30 L36.1818182,30 C36.6340682,30 37,30.44775 37,31 C37,31.55225 36.6340682,32 36.1818182,32 Z" id="Path" fill="#8A8895" fill-rule="nonzero"></path>
                    <path d="M40,14.5001875 C39.1607143,15.4207187 37.941081,16 36.5836516,16 C34.052139,16 32,13.9853125 32,11.5 C32,9.0146875 34.052139,7 36.5836516,7 C37.94089,7 39.1603323,7.57909375 39.999618,8.49934375" id="Path" fill="#FF4F19" fill-rule="nonzero"></path>
                    <polygon id="Path" fill="#FF9500" fill-rule="nonzero" points="21 12.25 13.5 12.25 13.5 10.75 21 10.75 21 9.25 13.5 9.25 13.5 7 12 7 12 16 13.5 16 13.5 13.75 21 13.75"></polygon>
                    <circle id="Oval" fill="#FFD100" fill-rule="nonzero" cx="42.5" cy="11.5" r="4.5"></circle>
                    <g id="warning" transform="translate(41.000000, 27.000000)">
                        <circle id="Oval" fill="#FFCC01" cx="8" cy="8" r="8"></circle>
                        <path d="M7.995,3 C7.5283065,3 7.15,3.3783065 7.15,3.845 L7.15,9.28650425 C7.15,9.75319775 7.5283065,10.1315043 7.995,10.1315043 C8.4616935,10.1315043 8.84,9.75319775 8.84,9.28650425 L8.84,3.845 C8.84,3.3783065 8.4616935,3 7.995,3 Z" id="Path" fill="#5B5B5B" fill-rule="nonzero"></path>
                        <circle id="Oval" fill="#5B5B5B" fill-rule="nonzero" cx="8" cy="11.91125" r="1"></circle>
                    </g>
                </g>
            </g>
        </g>
    </g>
</svg>