<?xml version="1.0" encoding="iso-8859-1"?>
<!-- Generator: Adobe Illustrator 19.0.0, SVG Export Plug-In . SVG Version: 6.00 Build 0)  -->
<svg version="1.1" id="Capa_1" xmlns="http://www.w3.org/2000/svg" xmlns:xlink="http://www.w3.org/1999/xlink" x="0px" y="0px"
	 viewBox="0 0 403.331 403.331" style="enable-background:new 0 0 403.331 403.331;" xml:space="preserve">
<g>
	<path style="fill:#00CEB4;" d="M352.131,100.833v8.882H86.727C68.753,110,54.332,124.653,54.335,142.629v154.122H32.392
		C14.502,296.751,0,282.249,0,264.359V87.771C0,69.882,14.502,55.38,32.392,55.38h0h287.347c17.889,0,32.392,14.502,32.392,32.392
		L352.131,100.833z"/>
	<path style="fill:#00EFD1;" d="M403.331,210.547v105.012c0,17.889-14.502,32.392-32.392,32.392H83.592
		c-17.89,0-32.392-14.502-32.392-32.392V210.547H403.331z"/>
	<polygon style="fill:#00ACEA;" points="403.331,163.527 403.331,210.547 53.812,210.547 51.2,210.547 51.2,163.527 53.812,163.527 
			"/>
	<path style="fill:#00EFD1;" d="M403.331,138.971v24.555H51.2v-24.555c0-17.89,14.502-32.392,32.392-32.392h0h287.347
		C388.828,106.58,403.331,121.082,403.331,138.971z"/>
	<path style="fill:#FEDB41;" d="M337.502,254.955c14.571,2.055,24.717,15.534,22.662,30.105
		c-1.659,11.76-10.901,21.003-22.662,22.662c-7.985,0.124-15.552-3.562-20.376-9.927c-4.824,6.364-12.391,10.051-20.376,9.927
		c-14.709,0.427-26.98-11.151-27.407-25.86c-0.427-14.709,11.151-26.98,25.86-27.407c8.558-0.249,16.715,3.631,21.922,10.426
		C322.102,258.705,329.571,255.066,337.502,254.955z"/>
</g>
<g>
</g>
<g>
</g>
<g>
</g>
<g>
</g>
<g>
</g>
<g>
</g>
<g>
</g>
<g>
</g>
<g>
</g>
<g>
</g>
<g>
</g>
<g>
</g>
<g>
</g>
<g>
</g>
<g>
</g>
</svg>
