<?xml version="1.0" encoding="UTF-8"?>
<svg width="72px" height="71px" viewBox="0 0 72 71" version="1.1" xmlns="http://www.w3.org/2000/svg" xmlns:xlink="http://www.w3.org/1999/xlink">
    <!-- Generator: Sketch 64 (93537) - https://sketch.com -->
    <title>2056133</title>
    <desc>Created with Sketch.</desc>
    <g id="Page---Main" stroke="none" stroke-width="1" fill="none" fill-rule="evenodd">
        <g id="Intro-Page-0---Mark-1" transform="translate(-151.000000, -208.000000)" fill="#1DA1F2" fill-rule="nonzero">
            <g id="2056133" transform="translate(151.000000, 208.000000)">
                <path d="M34.9125,44.7984444 C35.6113302,45.0671852 36.3856698,45.0671852 37.0845,44.7984444 C38.144625,44.3893376 63,34.5547247 63,15.1393244 C62.9858572,8.9338877 59.2018895,3.3535649 53.4255,1.0195422 C47.775,-1.21001497 41.547,0.256946302 36,5.02998288 C30.452625,0.256946302 24.225,-1.21001497 18.5745,1.0195422 C12.7981105,3.3535649 9.01414277,8.9338877 9,15.1393244 C9,34.5547247 33.855375,44.3893376 34.9125,44.7984444 L34.9125,44.7984444 Z M20.786625,6.57122539 C21.7814002,6.17614942 22.8427176,5.97345297 23.91375,5.97390276 C27.13275,5.97390276 30.553875,7.76345804 33.81375,11.21287 C34.385034,11.8044099 35.1737883,12.1387269 35.998125,12.1387269 C36.8224617,12.1387269 37.611216,11.8044099 38.1825,11.21287 C42.527625,6.61751119 47.154,4.96876617 51.2115,6.57047885 C54.6888702,8.01754017 56.9655918,11.387822 57,15.1393244 C57,28.473741 40.438875,36.7809224 35.997375,38.7674792 C31.54725,36.7861483 15,28.5133079 15,15.1393244 C15.0343879,11.3885445 17.3102383,8.01875438 20.786625,6.57122539 Z" id="Shape"></path>
                <path d="M57,41 C50.81475,41 40.58925,48.503 36,52.1375 C31.41075,48.503 21.18525,41 15,41 C6.71572875,41 0,47.7157288 0,56 C0,64.2842712 6.71572875,71 15,71 C21.18525,71 31.41075,63.497 36,59.8625 C40.58925,63.49625 50.81475,71 57,71 C65.2842712,71 72,64.2842712 72,56 C72,47.7157288 65.2842712,41 57,41 L57,41 Z M15,65 C10.0294373,65 6,60.9705627 6,56 C6,51.0294373 10.0294373,47 15,47 C18.219375,47 25.58775,51.70925 31.190625,56 C25.58775,60.29075 18.219375,65 15,65 Z M57,65 C53.780625,65 46.41225,60.29075 40.809375,56 C46.41225,51.70925 53.780625,47 57,47 C61.9705627,47 66,51.0294373 66,56 C66,60.9705627 61.9705627,65 57,65 Z" id="Shape"></path>
            </g>
        </g>
    </g>
</svg>