<?xml version="1.0" encoding="UTF-8"?>
<svg width="1024px" height="1024px" viewBox="0 0 1024 1024" version="1.1" xmlns="http://www.w3.org/2000/svg" xmlns:xlink="http://www.w3.org/1999/xlink">
    <!-- Generator: Sketch 64 (93537) - https://sketch.com -->
    <title>_ICON_white</title>
    <desc>Created with Sketch.</desc>
    <defs>
        <linearGradient x1="50%" y1="0%" x2="50%" y2="100%" id="linearGradient-1">
            <stop stop-color="#1DA1F2" offset="0%"></stop>
            <stop stop-color="#12A5FF" offset="100%"></stop>
        </linearGradient>
    </defs>
    <g id="_ICON_white" stroke="none" stroke-width="1" fill="none" fill-rule="evenodd">
        <g id="infinite-blue">
            <rect id="Rectangle" fill="url(#linearGradient-1)" x="0" y="0" width="1024" height="1024" rx="20"></rect>
            <g id="2056133" transform="translate(188.631579, 197.614035)" fill="#FFFFFF" fill-rule="nonzero">
                <path d="M313.6,402.400062 C319.877212,404.814015 326.832683,404.814015 333.109895,402.400062 C342.632421,398.725278 565.894737,310.386299 565.894737,135.988317 C565.7677,80.2482544 531.778375,30.1232496 479.892211,9.15799308 C429.136842,-10.8689064 373.194105,2.30800889 323.368421,45.1816006 C273.539368,2.30800889 217.6,-10.8689064 166.844632,9.15799308 C114.958467,30.1232496 80.9691421,80.2482544 80.8421053,135.988317 C80.8421053,310.386299 304.104421,398.725278 313.6,402.400062 L313.6,402.400062 Z M186.714947,59.0257439 C195.650472,55.4769913 205.183709,53.6562793 214.804211,53.6603195 C243.718737,53.6603195 274.448842,69.7349213 303.730526,100.719113 C308.86206,106.032594 315.947011,109.035582 323.351579,109.035582 C330.756147,109.035582 337.841098,106.032594 342.972632,100.719113 C382.002526,59.4415041 423.558737,44.6317242 460.005053,59.0190381 C491.240378,72.017203 511.69093,102.290611 512,135.988317 C512,255.76413 363.240421,330.383023 323.344842,348.227181 C283.371789,330.429963 134.736842,256.119538 134.736842,135.988317 C135.04573,102.297102 155.488456,72.0281096 186.714947,59.0257439 Z" id="Shape"></path>
                <path d="M512,368.280702 C456.441263,368.280702 364.591158,435.67607 323.368421,468.322807 C282.145684,435.67607 190.295579,368.280702 134.736842,368.280702 C60.323739,368.280702 0,428.604441 0,503.017544 C0,577.430647 60.323739,637.754386 134.736842,637.754386 C190.295579,637.754386 282.145684,570.359018 323.368421,537.712281 C364.591158,570.352281 456.441263,637.754386 512,637.754386 C586.413103,637.754386 646.736842,577.430647 646.736842,503.017544 C646.736842,428.604441 586.413103,368.280702 512,368.280702 L512,368.280702 Z M134.736842,583.859649 C90.0889802,583.859649 53.8947368,547.665406 53.8947368,503.017544 C53.8947368,458.369682 90.0889802,422.175439 134.736842,422.175439 C163.654737,422.175439 229.840842,464.47607 280.168421,503.017544 C229.840842,541.559018 163.654737,583.859649 134.736842,583.859649 Z M512,583.859649 C483.082105,583.859649 416.896,541.559018 366.568421,503.017544 C416.896,464.47607 483.082105,422.175439 512,422.175439 C556.647862,422.175439 592.842105,458.369682 592.842105,503.017544 C592.842105,547.665406 556.647862,583.859649 512,583.859649 Z" id="Shape"></path>
            </g>
        </g>
    </g>
</svg>